<mxfile host="app.diagrams.net" modified="2023-08-01T10:34:08.239Z" agent="Mozilla/5.0 (Macintosh; Intel Mac OS X 10_15_7) AppleWebKit/537.36 (KHTML, like Gecko) Chrome/115.0.0.0 Safari/537.36" version="21.6.5" etag="-MNQ0eQ4Z9aLgk94VaJM" type="github">
  <diagram name="페이지-1" id="da8It2WgnFqTzVVNCDtw">
    <mxGraphModel>
      <root>
        <mxCell id="0" />
        <mxCell id="1" parent="0" />
      </root>
    </mxGraphModel>
  </diagram>
</mxfile>
